  0
SECTION
  2
HEADER
  9
$EXTMIN
 10
-0.127000
 20
-0.139000
  9
$EXTMAX
 10
0.605000
 20
0.805000
  9
$LIMMIN
 10
-0.127000
 20
-0.139000
  9
$LIMMAX
 10
0.605000
 20
0.805000
  9
$FILLMODE
 70
  1
  0
ENDSEC
  0
SECTION
  2
TABLES
  0
TABLE
  2
LTYPE
 70
  1
  0
LTYPE
  2
CONTINUOUS
 70
 64
  3
Solid line
 72
 65
 73
  0
 40
0.0
  0
ENDTAB
  0
TABLE
  2
LAYER
 70
 1
  0
LAYER
  2
0
 70
  0
 62
7
  6
CONTINUOUS
  0
LAYER
  2
gg1
 70
  0
 62
1
  6
CONTINUOUS
  0
ENDTAB
  0
TABLE
  2
STYLE
 70
  1
  0
STYLE
  2
STANDARD
 70
  0
 40
0.0
 41
1.0
 50
0.0
 71
  0
 42
0.2
  3
txt
  4

  0
ENDTAB
  0
ENDSEC
  0
SECTION
  2
BLOCKS
  0
BLOCK
  8
0
  2
D10
 70
64
 10
0.0
 20
0.0
  3
D10
  0
CIRCLE
  8
0
 10
0.000000
 20
0.000000
 40
0.005000
 0
ENDBLK
  8
0
  0
BLOCK
  8
0
  2
D11
 70
64
 10
0.0
 20
0.0
  3
D11
  0
CIRCLE
  8
0
 10
0.000000
 20
0.000000
 40
0.002500
 0
ENDBLK
  8
0
  0
BLOCK
  8
0
  2
D12
 70
64
 10
0.0
 20
0.0
  3
D12
  0
CIRCLE
  8
0
 10
0.000000
 20
0.000000
 40
0.003000
 0
ENDBLK
  8
0
  0
BLOCK
  8
0
  2
D13
 70
64
 10
0.0
 20
0.0
  3
D13
  0
CIRCLE
  8
0
 10
0.000000
 20
0.000000
 40
0.001000
 0
ENDBLK
  8
0
  0
ENDSEC
  0
SECTION
  2
ENTITIES
  0
POLYLINE
  8
gg1
 62
1
 40
0.000000
 41
0.000000
 66
  1
  0
VERTEX
  8
gg1
 10
0.600000
 20
-0.110000
  0
VERTEX
  8
gg1
 10
0.600000
 20
-0.012500
  0
SEQEND
  8
gg1
  0
POLYLINE
  8
gg1
 62
1
 40
0.000000
 41
0.000000
 66
  1
  0
VERTEX
  8
gg1
 10
0.000000
 20
-0.110000
  0
VERTEX
  8
gg1
 10
0.000000
 20
-0.013900
  0
SEQEND
  8
gg1
  0
POLYLINE
  8
gg1
 62
1
 40
0.000000
 41
0.000000
 66
  1
  0
VERTEX
  8
gg1
 10
0.455000
 20
-0.100000
  0
VERTEX
  8
gg1
 10
0.600000
 20
-0.100000
  0
SEQEND
  8
gg1
  0
POLYLINE
  8
gg1
 62
1
 40
0.000000
 41
0.000000
 66
  1
  0
VERTEX
  8
gg1
 10
0.000000
 20
-0.100000
  0
VERTEX
  8
gg1
 10
0.113000
 20
-0.100000
  0
SEQEND
  8
gg1
  0
POLYLINE
  8
gg1
 62
1
 40
0.000000
 41
0.000000
 66
  1
  0
VERTEX
  8
gg1
 10
0.540000
 20
-0.080000
  0
VERTEX
  8
gg1
 10
0.600000
 20
-0.100000
  0
SEQEND
  8
gg1
  0
POLYLINE
  8
gg1
 62
1
 40
0.000000
 41
0.000000
 66
  1
  0
VERTEX
  8
gg1
 10
0.540000
 20
-0.120000
  0
VERTEX
  8
gg1
 10
0.600000
 20
-0.100000
  0
SEQEND
  8
gg1
  0
POLYLINE
  8
gg1
 62
1
 40
0.000000
 41
0.000000
 66
  1
  0
VERTEX
  8
gg1
 10
0.000000
 20
-0.100000
  0
VERTEX
  8
gg1
 10
0.060000
 20
-0.120000
  0
SEQEND
  8
gg1
  0
POLYLINE
  8
gg1
 62
1
 40
0.000000
 41
0.000000
 66
  1
  0
VERTEX
  8
gg1
 10
0.000000
 20
-0.100000
  0
VERTEX
  8
gg1
 10
0.060000
 20
-0.080000
  0
SEQEND
  8
gg1
  0
POLYLINE
  8
gg1
 62
1
 40
0.000000
 41
0.000000
 66
  1
  0
VERTEX
  8
gg1
 10
-0.110000
 20
0.800000
  0
VERTEX
  8
gg1
 10
-0.012500
 20
0.800000
  0
SEQEND
  8
gg1
  0
POLYLINE
  8
gg1
 62
1
 40
0.000000
 41
0.000000
 66
  1
  0
VERTEX
  8
gg1
 10
-0.110000
 20
0.000000
  0
VERTEX
  8
gg1
 10
-0.012500
 20
0.000000
  0
SEQEND
  8
gg1
  0
POLYLINE
  8
gg1
 62
1
 40
0.000000
 41
0.000000
 66
  1
  0
VERTEX
  8
gg1
 10
-0.100000
 20
0.554900
  0
VERTEX
  8
gg1
 10
-0.100000
 20
0.800000
  0
SEQEND
  8
gg1
  0
POLYLINE
  8
gg1
 62
1
 40
0.000000
 41
0.000000
 66
  1
  0
VERTEX
  8
gg1
 10
-0.100000
 20
0.000000
  0
VERTEX
  8
gg1
 10
-0.100000
 20
0.213000
  0
SEQEND
  8
gg1
  0
POLYLINE
  8
gg1
 62
1
 40
0.000000
 41
0.000000
 66
  1
  0
VERTEX
  8
gg1
 10
-0.120000
 20
0.740000
  0
VERTEX
  8
gg1
 10
-0.100000
 20
0.800000
  0
VERTEX
  8
gg1
 10
-0.080000
 20
0.740000
  0
SEQEND
  8
gg1
  0
POLYLINE
  8
gg1
 62
1
 40
0.000000
 41
0.000000
 66
  1
  0
VERTEX
  8
gg1
 10
-0.100000
 20
0.000000
  0
VERTEX
  8
gg1
 10
-0.080000
 20
0.060000
  0
SEQEND
  8
gg1
  0
POLYLINE
  8
gg1
 62
1
 40
0.000000
 41
0.000000
 66
  1
  0
VERTEX
  8
gg1
 10
-0.120000
 20
0.060000
  0
VERTEX
  8
gg1
 10
-0.100000
 20
0.000000
  0
SEQEND
  8
gg1
  0
POLYLINE
  8
gg1
 62
1
 40
0.000000
 41
0.000000
 66
  1
  0
VERTEX
  8
gg1
 10
0.000000
 20
0.000000
  0
VERTEX
  8
gg1
 10
0.000000
 20
0.800000
  0
VERTEX
  8
gg1
 10
0.600000
 20
0.800000
  0
SEQEND
  8
gg1
  0
POLYLINE
  8
gg1
 62
1
 40
0.000000
 41
0.000000
 66
  1
  0
VERTEX
  8
gg1
 10
0.600000
 20
0.000000
  0
VERTEX
  8
gg1
 10
0.600000
 20
0.800000
  0
SEQEND
  8
gg1
  0
POLYLINE
  8
gg1
 62
1
 40
0.000000
 41
0.000000
 66
  1
  0
VERTEX
  8
gg1
 10
0.000000
 20
0.000000
  0
VERTEX
  8
gg1
 10
0.600000
 20
0.000000
  0
SEQEND
  8
gg1
  0
POLYLINE
  8
gg1
 62
1
 40
0.000000
 41
0.000000
 66
  1
  0
VERTEX
  8
gg1
 10
0.169000
 20
-0.076000
  0
VERTEX
  8
gg1
 10
0.149000
 20
-0.086000
  0
VERTEX
  8
gg1
 10
0.129100
 20
-0.106000
  0
VERTEX
  8
gg1
 10
0.129100
 20
-0.126000
  0
VERTEX
  8
gg1
 10
0.139000
 20
-0.136000
  0
VERTEX
  8
gg1
 10
0.159000
 20
-0.136000
  0
VERTEX
  8
gg1
 10
0.169000
 20
-0.126000
  0
VERTEX
  8
gg1
 10
0.169000
 20
-0.116000
  0
VERTEX
  8
gg1
 10
0.159000
 20
-0.106000
  0
VERTEX
  8
gg1
 10
0.129100
 20
-0.106000
  0
SEQEND
  8
gg1
  0
POLYLINE
  8
gg1
 62
1
 40
0.000000
 41
0.000000
 66
  1
  0
VERTEX
  8
gg1
 10
0.189000
 20
-0.086000
  0
VERTEX
  8
gg1
 10
0.199000
 20
-0.076000
  0
VERTEX
  8
gg1
 10
0.219000
 20
-0.076000
  0
VERTEX
  8
gg1
 10
0.229000
 20
-0.086000
  0
VERTEX
  8
gg1
 10
0.229000
 20
-0.126000
  0
VERTEX
  8
gg1
 10
0.219000
 20
-0.136000
  0
VERTEX
  8
gg1
 10
0.199000
 20
-0.136000
  0
VERTEX
  8
gg1
 10
0.189000
 20
-0.126000
  0
VERTEX
  8
gg1
 10
0.189000
 20
-0.086000
  0
SEQEND
  8
gg1
  0
POLYLINE
  8
gg1
 62
1
 40
0.000000
 41
0.000000
 66
  1
  0
VERTEX
  8
gg1
 10
0.249000
 20
-0.086000
  0
VERTEX
  8
gg1
 10
0.259000
 20
-0.076000
  0
VERTEX
  8
gg1
 10
0.279000
 20
-0.076000
  0
VERTEX
  8
gg1
 10
0.289000
 20
-0.086000
  0
VERTEX
  8
gg1
 10
0.289000
 20
-0.126000
  0
VERTEX
  8
gg1
 10
0.279000
 20
-0.136000
  0
VERTEX
  8
gg1
 10
0.259000
 20
-0.136000
  0
VERTEX
  8
gg1
 10
0.249000
 20
-0.126000
  0
VERTEX
  8
gg1
 10
0.249000
 20
-0.086000
  0
SEQEND
  8
gg1
  0
POLYLINE
  8
gg1
 62
1
 40
0.000000
 41
0.000000
 66
  1
  0
VERTEX
  8
gg1
 10
0.309000
 20
-0.136000
  0
VERTEX
  8
gg1
 10
0.309000
 20
-0.096000
  0
VERTEX
  8
gg1
 10
0.319000
 20
-0.096000
  0
VERTEX
  8
gg1
 10
0.329000
 20
-0.106000
  0
VERTEX
  8
gg1
 10
0.329000
 20
-0.136000
  0
VERTEX
  8
gg1
 10
0.329000
 20
-0.106000
  0
VERTEX
  8
gg1
 10
0.339000
 20
-0.096000
  0
VERTEX
  8
gg1
 10
0.349000
 20
-0.106000
  0
VERTEX
  8
gg1
 10
0.349000
 20
-0.136000
  0
SEQEND
  8
gg1
  0
POLYLINE
  8
gg1
 62
1
 40
0.000000
 41
0.000000
 66
  1
  0
VERTEX
  8
gg1
 10
0.369000
 20
-0.136000
  0
VERTEX
  8
gg1
 10
0.389000
 20
-0.136000
  0
VERTEX
  8
gg1
 10
0.379000
 20
-0.136000
  0
VERTEX
  8
gg1
 10
0.379000
 20
-0.096000
  0
VERTEX
  8
gg1
 10
0.369000
 20
-0.096000
  0
SEQEND
  8
gg1
  0
POLYLINE
  8
gg1
 62
1
 40
0.000000
 41
0.000000
 66
  1
  0
VERTEX
  8
gg1
 10
0.419000
 20
-0.136000
  0
VERTEX
  8
gg1
 10
0.439000
 20
-0.136000
  0
VERTEX
  8
gg1
 10
0.429000
 20
-0.136000
  0
VERTEX
  8
gg1
 10
0.429000
 20
-0.076000
  0
VERTEX
  8
gg1
 10
0.419000
 20
-0.076000
  0
SEQEND
  8
gg1
  0
POLYLINE
  8
gg1
 62
1
 40
0.000000
 41
0.000000
 66
  1
  0
VERTEX
  8
gg1
 10
-0.114000
 20
0.229000
  0
VERTEX
  8
gg1
 10
-0.124000
 20
0.239000
  0
VERTEX
  8
gg1
 10
-0.124000
 20
0.259000
  0
VERTEX
  8
gg1
 10
-0.114000
 20
0.269000
  0
VERTEX
  8
gg1
 10
-0.104000
 20
0.269000
  0
VERTEX
  8
gg1
 10
-0.094000
 20
0.259000
  0
VERTEX
  8
gg1
 10
-0.084000
 20
0.269000
  0
VERTEX
  8
gg1
 10
-0.074000
 20
0.269000
  0
VERTEX
  8
gg1
 10
-0.064000
 20
0.259000
  0
VERTEX
  8
gg1
 10
-0.064000
 20
0.239000
  0
VERTEX
  8
gg1
 10
-0.074000
 20
0.229000
  0
VERTEX
  8
gg1
 10
-0.084000
 20
0.229000
  0
VERTEX
  8
gg1
 10
-0.094000
 20
0.239000
  0
VERTEX
  8
gg1
 10
-0.104000
 20
0.229000
  0
VERTEX
  8
gg1
 10
-0.114000
 20
0.229000
  0
SEQEND
  8
gg1
  0
POLYLINE
  8
gg1
 62
1
 40
0.000000
 41
0.000000
 66
  1
  0
VERTEX
  8
gg1
 10
-0.094000
 20
0.239000
  0
VERTEX
  8
gg1
 10
-0.094000
 20
0.259000
  0
SEQEND
  8
gg1
  0
POLYLINE
  8
gg1
 62
1
 40
0.000000
 41
0.000000
 66
  1
  0
VERTEX
  8
gg1
 10
-0.114000
 20
0.289000
  0
VERTEX
  8
gg1
 10
-0.124000
 20
0.299000
  0
VERTEX
  8
gg1
 10
-0.124000
 20
0.319000
  0
VERTEX
  8
gg1
 10
-0.114000
 20
0.329000
  0
VERTEX
  8
gg1
 10
-0.074000
 20
0.329000
  0
VERTEX
  8
gg1
 10
-0.064000
 20
0.319000
  0
VERTEX
  8
gg1
 10
-0.064000
 20
0.299000
  0
VERTEX
  8
gg1
 10
-0.074000
 20
0.289000
  0
VERTEX
  8
gg1
 10
-0.114000
 20
0.289000
  0
SEQEND
  8
gg1
  0
POLYLINE
  8
gg1
 62
1
 40
0.000000
 41
0.000000
 66
  1
  0
VERTEX
  8
gg1
 10
-0.114000
 20
0.349000
  0
VERTEX
  8
gg1
 10
-0.124000
 20
0.359000
  0
VERTEX
  8
gg1
 10
-0.124000
 20
0.379000
  0
VERTEX
  8
gg1
 10
-0.114000
 20
0.389000
  0
VERTEX
  8
gg1
 10
-0.074000
 20
0.389000
  0
VERTEX
  8
gg1
 10
-0.064000
 20
0.379000
  0
VERTEX
  8
gg1
 10
-0.064000
 20
0.359000
  0
VERTEX
  8
gg1
 10
-0.074000
 20
0.349000
  0
VERTEX
  8
gg1
 10
-0.114000
 20
0.349000
  0
SEQEND
  8
gg1
  0
POLYLINE
  8
gg1
 62
1
 40
0.000000
 41
0.000000
 66
  1
  0
VERTEX
  8
gg1
 10
-0.064000
 20
0.409000
  0
VERTEX
  8
gg1
 10
-0.104000
 20
0.409000
  0
VERTEX
  8
gg1
 10
-0.104000
 20
0.419000
  0
VERTEX
  8
gg1
 10
-0.094000
 20
0.429000
  0
VERTEX
  8
gg1
 10
-0.064000
 20
0.429000
  0
VERTEX
  8
gg1
 10
-0.094000
 20
0.429000
  0
VERTEX
  8
gg1
 10
-0.104000
 20
0.439000
  0
VERTEX
  8
gg1
 10
-0.094000
 20
0.449000
  0
VERTEX
  8
gg1
 10
-0.064000
 20
0.449000
  0
SEQEND
  8
gg1
  0
POLYLINE
  8
gg1
 62
1
 40
0.000000
 41
0.000000
 66
  1
  0
VERTEX
  8
gg1
 10
-0.064000
 20
0.469000
  0
VERTEX
  8
gg1
 10
-0.064000
 20
0.489000
  0
VERTEX
  8
gg1
 10
-0.064000
 20
0.479000
  0
VERTEX
  8
gg1
 10
-0.104000
 20
0.479000
  0
VERTEX
  8
gg1
 10
-0.104000
 20
0.469000
  0
SEQEND
  8
gg1
  0
POLYLINE
  8
gg1
 62
1
 40
0.000000
 41
0.000000
 66
  1
  0
VERTEX
  8
gg1
 10
-0.064000
 20
0.519000
  0
VERTEX
  8
gg1
 10
-0.064000
 20
0.539000
  0
VERTEX
  8
gg1
 10
-0.064000
 20
0.529000
  0
VERTEX
  8
gg1
 10
-0.124000
 20
0.529000
  0
VERTEX
  8
gg1
 10
-0.124000
 20
0.519000
  0
SEQEND
  8
gg1
  0
POLYLINE
  8
gg1
 62
1
 40
0.000000
 41
0.000000
 66
  1
  0
VERTEX
  8
gg1
 10
0.530000
 20
0.050000
  0
VERTEX
  8
gg1
 10
0.570000
 20
0.050000
  0
SEQEND
  8
gg1
  0
POLYLINE
  8
gg1
 62
1
 40
0.000000
 41
0.000000
 66
  1
  0
VERTEX
  8
gg1
 10
0.550000
 20
0.030000
  0
VERTEX
  8
gg1
 10
0.550000
 20
0.070000
  0
SEQEND
  8
gg1
  0
POLYLINE
  8
gg1
 62
1
 40
0.000000
 41
0.000000
 66
  1
  0
VERTEX
  8
gg1
 10
0.530000
 20
0.150000
  0
VERTEX
  8
gg1
 10
0.570000
 20
0.150000
  0
SEQEND
  8
gg1
  0
POLYLINE
  8
gg1
 62
1
 40
0.000000
 41
0.000000
 66
  1
  0
VERTEX
  8
gg1
 10
0.550000
 20
0.130000
  0
VERTEX
  8
gg1
 10
0.550000
 20
0.170000
  0
SEQEND
  8
gg1
  0
POLYLINE
  8
gg1
 62
1
 40
0.000000
 41
0.000000
 66
  1
  0
VERTEX
  8
gg1
 10
0.530000
 20
0.250000
  0
VERTEX
  8
gg1
 10
0.570000
 20
0.250000
  0
SEQEND
  8
gg1
  0
POLYLINE
  8
gg1
 62
1
 40
0.000000
 41
0.000000
 66
  1
  0
VERTEX
  8
gg1
 10
0.550000
 20
0.230000
  0
VERTEX
  8
gg1
 10
0.550000
 20
0.270000
  0
SEQEND
  8
gg1
  0
POLYLINE
  8
gg1
 62
1
 40
0.000000
 41
0.000000
 66
  1
  0
VERTEX
  8
gg1
 10
0.530000
 20
0.750000
  0
VERTEX
  8
gg1
 10
0.570000
 20
0.750000
  0
SEQEND
  8
gg1
  0
POLYLINE
  8
gg1
 62
1
 40
0.000000
 41
0.000000
 66
  1
  0
VERTEX
  8
gg1
 10
0.550000
 20
0.730000
  0
VERTEX
  8
gg1
 10
0.550000
 20
0.770000
  0
SEQEND
  8
gg1
  0
POLYLINE
  8
gg1
 62
1
 40
0.000000
 41
0.000000
 66
  1
  0
VERTEX
  8
gg1
 10
0.530000
 20
0.650000
  0
VERTEX
  8
gg1
 10
0.570000
 20
0.650000
  0
SEQEND
  8
gg1
  0
POLYLINE
  8
gg1
 62
1
 40
0.000000
 41
0.000000
 66
  1
  0
VERTEX
  8
gg1
 10
0.550000
 20
0.630000
  0
VERTEX
  8
gg1
 10
0.550000
 20
0.670000
  0
SEQEND
  8
gg1
  0
POLYLINE
  8
gg1
 62
1
 40
0.000000
 41
0.000000
 66
  1
  0
VERTEX
  8
gg1
 10
0.530000
 20
0.550000
  0
VERTEX
  8
gg1
 10
0.570000
 20
0.550000
  0
SEQEND
  8
gg1
  0
POLYLINE
  8
gg1
 62
1
 40
0.000000
 41
0.000000
 66
  1
  0
VERTEX
  8
gg1
 10
0.550000
 20
0.530000
  0
VERTEX
  8
gg1
 10
0.550000
 20
0.570000
  0
SEQEND
  8
gg1
  0
POLYLINE
  8
gg1
 62
1
 40
0.000000
 41
0.000000
 66
  1
  0
VERTEX
  8
gg1
 10
0.530000
 20
0.450000
  0
VERTEX
  8
gg1
 10
0.570000
 20
0.450000
  0
SEQEND
  8
gg1
  0
POLYLINE
  8
gg1
 62
1
 40
0.000000
 41
0.000000
 66
  1
  0
VERTEX
  8
gg1
 10
0.550000
 20
0.430000
  0
VERTEX
  8
gg1
 10
0.550000
 20
0.470000
  0
SEQEND
  8
gg1
  0
POLYLINE
  8
gg1
 62
1
 40
0.000000
 41
0.000000
 66
  1
  0
VERTEX
  8
gg1
 10
0.530000
 20
0.350000
  0
VERTEX
  8
gg1
 10
0.570000
 20
0.350000
  0
SEQEND
  8
gg1
  0
POLYLINE
  8
gg1
 62
1
 40
0.000000
 41
0.000000
 66
  1
  0
VERTEX
  8
gg1
 10
0.550000
 20
0.330000
  0
VERTEX
  8
gg1
 10
0.550000
 20
0.370000
  0
SEQEND
  8
gg1
  0
POLYLINE
  8
gg1
 62
1
 40
0.000000
 41
0.000000
 66
  1
  0
VERTEX
  8
gg1
 10
0.030000
 20
0.050000
  0
VERTEX
  8
gg1
 10
0.070000
 20
0.050000
  0
SEQEND
  8
gg1
  0
POLYLINE
  8
gg1
 62
1
 40
0.000000
 41
0.000000
 66
  1
  0
VERTEX
  8
gg1
 10
0.050000
 20
0.030000
  0
VERTEX
  8
gg1
 10
0.050000
 20
0.070000
  0
SEQEND
  8
gg1
  0
POLYLINE
  8
gg1
 62
1
 40
0.000000
 41
0.000000
 66
  1
  0
VERTEX
  8
gg1
 10
0.030000
 20
0.250000
  0
VERTEX
  8
gg1
 10
0.070000
 20
0.250000
  0
SEQEND
  8
gg1
  0
POLYLINE
  8
gg1
 62
1
 40
0.000000
 41
0.000000
 66
  1
  0
VERTEX
  8
gg1
 10
0.050000
 20
0.230000
  0
VERTEX
  8
gg1
 10
0.050000
 20
0.270000
  0
SEQEND
  8
gg1
  0
POLYLINE
  8
gg1
 62
1
 40
0.000000
 41
0.000000
 66
  1
  0
VERTEX
  8
gg1
 10
0.030000
 20
0.750000
  0
VERTEX
  8
gg1
 10
0.070000
 20
0.750000
  0
SEQEND
  8
gg1
  0
POLYLINE
  8
gg1
 62
1
 40
0.000000
 41
0.000000
 66
  1
  0
VERTEX
  8
gg1
 10
0.050000
 20
0.730000
  0
VERTEX
  8
gg1
 10
0.050000
 20
0.770000
  0
SEQEND
  8
gg1
  0
POLYLINE
  8
gg1
 62
1
 40
0.000000
 41
0.000000
 66
  1
  0
VERTEX
  8
gg1
 10
0.030000
 20
0.650000
  0
VERTEX
  8
gg1
 10
0.070000
 20
0.650000
  0
SEQEND
  8
gg1
  0
POLYLINE
  8
gg1
 62
1
 40
0.000000
 41
0.000000
 66
  1
  0
VERTEX
  8
gg1
 10
0.050000
 20
0.630000
  0
VERTEX
  8
gg1
 10
0.050000
 20
0.670000
  0
SEQEND
  8
gg1
  0
POLYLINE
  8
gg1
 62
1
 40
0.000000
 41
0.000000
 66
  1
  0
VERTEX
  8
gg1
 10
0.030000
 20
0.550000
  0
VERTEX
  8
gg1
 10
0.070000
 20
0.550000
  0
SEQEND
  8
gg1
  0
POLYLINE
  8
gg1
 62
1
 40
0.000000
 41
0.000000
 66
  1
  0
VERTEX
  8
gg1
 10
0.050000
 20
0.530000
  0
VERTEX
  8
gg1
 10
0.050000
 20
0.570000
  0
SEQEND
  8
gg1
  0
POLYLINE
  8
gg1
 62
1
 40
0.000000
 41
0.000000
 66
  1
  0
VERTEX
  8
gg1
 10
0.030000
 20
0.450000
  0
VERTEX
  8
gg1
 10
0.070000
 20
0.450000
  0
SEQEND
  8
gg1
  0
POLYLINE
  8
gg1
 62
1
 40
0.000000
 41
0.000000
 66
  1
  0
VERTEX
  8
gg1
 10
0.050000
 20
0.430000
  0
VERTEX
  8
gg1
 10
0.050000
 20
0.470000
  0
SEQEND
  8
gg1
  0
POLYLINE
  8
gg1
 62
1
 40
0.000000
 41
0.000000
 66
  1
  0
VERTEX
  8
gg1
 10
0.030000
 20
0.350000
  0
VERTEX
  8
gg1
 10
0.070000
 20
0.350000
  0
SEQEND
  8
gg1
  0
POLYLINE
  8
gg1
 62
1
 40
0.000000
 41
0.000000
 66
  1
  0
VERTEX
  8
gg1
 10
0.050000
 20
0.330000
  0
VERTEX
  8
gg1
 10
0.050000
 20
0.370000
  0
SEQEND
  8
gg1
  0
POLYLINE
  8
gg1
 62
1
 40
0.000000
 41
0.000000
 66
  1
  0
VERTEX
  8
gg1
 10
0.030000
 20
0.150000
  0
VERTEX
  8
gg1
 10
0.070000
 20
0.150000
  0
SEQEND
  8
gg1
  0
POLYLINE
  8
gg1
 62
1
 40
0.000000
 41
0.000000
 66
  1
  0
VERTEX
  8
gg1
 10
0.050000
 20
0.130000
  0
VERTEX
  8
gg1
 10
0.050000
 20
0.170000
  0
SEQEND
  8
gg1
  0
POLYLINE
  8
gg1
 62
1
 40
0.000000
 41
0.000000
 66
  1
  0
VERTEX
  8
gg1
 10
0.220000
 20
0.530000
  0
VERTEX
  8
gg1
 10
0.240000
 20
0.530000
  0
SEQEND
  8
gg1
  0
POLYLINE
  8
gg1
 62
1
 40
0.000000
 41
0.000000
 66
  1
  0
VERTEX
  8
gg1
 10
0.230000
 20
0.520000
  0
VERTEX
  8
gg1
 10
0.230000
 20
0.540000
  0
SEQEND
  8
gg1
  0
POLYLINE
  8
gg1
 62
1
 40
0.000000
 41
0.000000
 66
  1
  0
VERTEX
  8
gg1
 10
0.487500
 20
0.705000
  0
VERTEX
  8
gg1
 10
0.502500
 20
0.705000
  0
SEQEND
  8
gg1
  0
POLYLINE
  8
gg1
 62
1
 40
0.000000
 41
0.000000
 66
  1
  0
VERTEX
  8
gg1
 10
0.495000
 20
0.697500
  0
VERTEX
  8
gg1
 10
0.495000
 20
0.712500
  0
SEQEND
  8
gg1
  0
POLYLINE
  8
gg1
 62
1
 40
0.000000
 41
0.000000
 66
  1
  0
VERTEX
  8
gg1
 10
0.487500
 20
0.745000
  0
VERTEX
  8
gg1
 10
0.502500
 20
0.745000
  0
SEQEND
  8
gg1
  0
POLYLINE
  8
gg1
 62
1
 40
0.000000
 41
0.000000
 66
  1
  0
VERTEX
  8
gg1
 10
0.495000
 20
0.737500
  0
VERTEX
  8
gg1
 10
0.495000
 20
0.752500
  0
SEQEND
  8
gg1
  0
POLYLINE
  8
gg1
 62
1
 40
0.000000
 41
0.000000
 66
  1
  0
VERTEX
  8
gg1
 10
0.502500
 20
0.400000
  0
VERTEX
  8
gg1
 10
0.517500
 20
0.400000
  0
SEQEND
  8
gg1
  0
POLYLINE
  8
gg1
 62
1
 40
0.000000
 41
0.000000
 66
  1
  0
VERTEX
  8
gg1
 10
0.510000
 20
0.392500
  0
VERTEX
  8
gg1
 10
0.510000
 20
0.407500
  0
SEQEND
  8
gg1
  0
POLYLINE
  8
gg1
 62
1
 40
0.000000
 41
0.000000
 66
  1
  0
VERTEX
  8
gg1
 10
0.127500
 20
0.045000
  0
VERTEX
  8
gg1
 10
0.142500
 20
0.045000
  0
SEQEND
  8
gg1
  0
POLYLINE
  8
gg1
 62
1
 40
0.000000
 41
0.000000
 66
  1
  0
VERTEX
  8
gg1
 10
0.135000
 20
0.037500
  0
VERTEX
  8
gg1
 10
0.135000
 20
0.052500
  0
SEQEND
  8
gg1
  0
POLYLINE
  8
gg1
 62
1
 40
0.000000
 41
0.000000
 66
  1
  0
VERTEX
  8
gg1
 10
0.457500
 20
0.188000
  0
VERTEX
  8
gg1
 10
0.472500
 20
0.188000
  0
SEQEND
  8
gg1
  0
POLYLINE
  8
gg1
 62
1
 40
0.000000
 41
0.000000
 66
  1
  0
VERTEX
  8
gg1
 10
0.465000
 20
0.180500
  0
VERTEX
  8
gg1
 10
0.465000
 20
0.195500
  0
SEQEND
  8
gg1
  0
POLYLINE
  8
gg1
 62
1
 40
0.000000
 41
0.000000
 66
  1
  0
VERTEX
  8
gg1
 10
0.332500
 20
0.740000
  0
VERTEX
  8
gg1
 10
0.347500
 20
0.740000
  0
SEQEND
  8
gg1
  0
POLYLINE
  8
gg1
 62
1
 40
0.000000
 41
0.000000
 66
  1
  0
VERTEX
  8
gg1
 10
0.340000
 20
0.732500
  0
VERTEX
  8
gg1
 10
0.340000
 20
0.747500
  0
SEQEND
  8
gg1
  0
POLYLINE
  8
gg1
 62
1
 40
0.000000
 41
0.000000
 66
  1
  0
VERTEX
  8
gg1
 10
0.472500
 20
0.415000
  0
VERTEX
  8
gg1
 10
0.487500
 20
0.415000
  0
SEQEND
  8
gg1
  0
POLYLINE
  8
gg1
 62
1
 40
0.000000
 41
0.000000
 66
  1
  0
VERTEX
  8
gg1
 10
0.480000
 20
0.407500
  0
VERTEX
  8
gg1
 10
0.480000
 20
0.422500
  0
SEQEND
  8
gg1
  0
POLYLINE
  8
gg1
 62
1
 40
0.000000
 41
0.000000
 66
  1
  0
VERTEX
  8
gg1
 10
0.472500
 20
0.385000
  0
VERTEX
  8
gg1
 10
0.487500
 20
0.385000
  0
SEQEND
  8
gg1
  0
POLYLINE
  8
gg1
 62
1
 40
0.000000
 41
0.000000
 66
  1
  0
VERTEX
  8
gg1
 10
0.480000
 20
0.377500
  0
VERTEX
  8
gg1
 10
0.480000
 20
0.392500
  0
SEQEND
  8
gg1
  0
POLYLINE
  8
gg1
 62
1
 40
0.000000
 41
0.000000
 66
  1
  0
VERTEX
  8
gg1
 10
0.452500
 20
0.705000
  0
VERTEX
  8
gg1
 10
0.467500
 20
0.705000
  0
SEQEND
  8
gg1
  0
POLYLINE
  8
gg1
 62
1
 40
0.000000
 41
0.000000
 66
  1
  0
VERTEX
  8
gg1
 10
0.460000
 20
0.697500
  0
VERTEX
  8
gg1
 10
0.460000
 20
0.712500
  0
SEQEND
  8
gg1
  0
POLYLINE
  8
gg1
 62
1
 40
0.000000
 41
0.000000
 66
  1
  0
VERTEX
  8
gg1
 10
0.417500
 20
0.705000
  0
VERTEX
  8
gg1
 10
0.432500
 20
0.705000
  0
SEQEND
  8
gg1
  0
POLYLINE
  8
gg1
 62
1
 40
0.000000
 41
0.000000
 66
  1
  0
VERTEX
  8
gg1
 10
0.425000
 20
0.697500
  0
VERTEX
  8
gg1
 10
0.425000
 20
0.712500
  0
SEQEND
  8
gg1
  0
POLYLINE
  8
gg1
 62
1
 40
0.000000
 41
0.000000
 66
  1
  0
VERTEX
  8
gg1
 10
0.442500
 20
0.385000
  0
VERTEX
  8
gg1
 10
0.457500
 20
0.385000
  0
SEQEND
  8
gg1
  0
POLYLINE
  8
gg1
 62
1
 40
0.000000
 41
0.000000
 66
  1
  0
VERTEX
  8
gg1
 10
0.450000
 20
0.377500
  0
VERTEX
  8
gg1
 10
0.450000
 20
0.392500
  0
SEQEND
  8
gg1
  0
POLYLINE
  8
gg1
 62
1
 40
0.000000
 41
0.000000
 66
  1
  0
VERTEX
  8
gg1
 10
0.412500
 20
0.400000
  0
VERTEX
  8
gg1
 10
0.427500
 20
0.400000
  0
SEQEND
  8
gg1
  0
POLYLINE
  8
gg1
 62
1
 40
0.000000
 41
0.000000
 66
  1
  0
VERTEX
  8
gg1
 10
0.420000
 20
0.392500
  0
VERTEX
  8
gg1
 10
0.420000
 20
0.407500
  0
SEQEND
  8
gg1
  0
POLYLINE
  8
gg1
 62
1
 40
0.000000
 41
0.000000
 66
  1
  0
VERTEX
  8
gg1
 10
0.307500
 20
0.509500
  0
VERTEX
  8
gg1
 10
0.322500
 20
0.509500
  0
SEQEND
  8
gg1
  0
POLYLINE
  8
gg1
 62
1
 40
0.000000
 41
0.000000
 66
  1
  0
VERTEX
  8
gg1
 10
0.315000
 20
0.502000
  0
VERTEX
  8
gg1
 10
0.315000
 20
0.517000
  0
SEQEND
  8
gg1
  0
POLYLINE
  8
gg1
 62
1
 40
0.000000
 41
0.000000
 66
  1
  0
VERTEX
  8
gg1
 10
0.292500
 20
0.256500
  0
VERTEX
  8
gg1
 10
0.307500
 20
0.256500
  0
SEQEND
  8
gg1
  0
POLYLINE
  8
gg1
 62
1
 40
0.000000
 41
0.000000
 66
  1
  0
VERTEX
  8
gg1
 10
0.300000
 20
0.249000
  0
VERTEX
  8
gg1
 10
0.300000
 20
0.264000
  0
SEQEND
  8
gg1
  0
POLYLINE
  8
gg1
 62
1
 40
0.000000
 41
0.000000
 66
  1
  0
VERTEX
  8
gg1
 10
0.407500
 20
0.440000
  0
VERTEX
  8
gg1
 10
0.422500
 20
0.440000
  0
SEQEND
  8
gg1
  0
POLYLINE
  8
gg1
 62
1
 40
0.000000
 41
0.000000
 66
  1
  0
VERTEX
  8
gg1
 10
0.415000
 20
0.432500
  0
VERTEX
  8
gg1
 10
0.415000
 20
0.447500
  0
SEQEND
  8
gg1
  0
POLYLINE
  8
gg1
 62
1
 40
0.000000
 41
0.000000
 66
  1
  0
VERTEX
  8
gg1
 10
0.407500
 20
0.469000
  0
VERTEX
  8
gg1
 10
0.422500
 20
0.469000
  0
SEQEND
  8
gg1
  0
POLYLINE
  8
gg1
 62
1
 40
0.000000
 41
0.000000
 66
  1
  0
VERTEX
  8
gg1
 10
0.415000
 20
0.461500
  0
VERTEX
  8
gg1
 10
0.415000
 20
0.476500
  0
SEQEND
  8
gg1
  0
POLYLINE
  8
gg1
 62
1
 40
0.000000
 41
0.000000
 66
  1
  0
VERTEX
  8
gg1
 10
0.152500
 20
0.717000
  0
VERTEX
  8
gg1
 10
0.167500
 20
0.717000
  0
SEQEND
  8
gg1
  0
POLYLINE
  8
gg1
 62
1
 40
0.000000
 41
0.000000
 66
  1
  0
VERTEX
  8
gg1
 10
0.160000
 20
0.709500
  0
VERTEX
  8
gg1
 10
0.160000
 20
0.724500
  0
SEQEND
  8
gg1
  0
POLYLINE
  8
gg1
 62
1
 40
0.000000
 41
0.000000
 66
  1
  0
VERTEX
  8
gg1
 10
0.273800
 20
0.381300
  0
VERTEX
  8
gg1
 10
0.288800
 20
0.381300
  0
SEQEND
  8
gg1
  0
POLYLINE
  8
gg1
 62
1
 40
0.000000
 41
0.000000
 66
  1
  0
VERTEX
  8
gg1
 10
0.281300
 20
0.373800
  0
VERTEX
  8
gg1
 10
0.281300
 20
0.388800
  0
SEQEND
  8
gg1
  0
POLYLINE
  8
gg1
 62
1
 40
0.000000
 41
0.000000
 66
  1
  0
VERTEX
  8
gg1
 10
0.311200
 20
0.381300
  0
VERTEX
  8
gg1
 10
0.326200
 20
0.381300
  0
SEQEND
  8
gg1
  0
POLYLINE
  8
gg1
 62
1
 40
0.000000
 41
0.000000
 66
  1
  0
VERTEX
  8
gg1
 10
0.318700
 20
0.373800
  0
VERTEX
  8
gg1
 10
0.318700
 20
0.388800
  0
SEQEND
  8
gg1
  0
POLYLINE
  8
gg1
 62
1
 40
0.000000
 41
0.000000
 66
  1
  0
VERTEX
  8
gg1
 10
0.311200
 20
0.418700
  0
VERTEX
  8
gg1
 10
0.326200
 20
0.418700
  0
SEQEND
  8
gg1
  0
POLYLINE
  8
gg1
 62
1
 40
0.000000
 41
0.000000
 66
  1
  0
VERTEX
  8
gg1
 10
0.318700
 20
0.411200
  0
VERTEX
  8
gg1
 10
0.318700
 20
0.426200
  0
SEQEND
  8
gg1
  0
POLYLINE
  8
gg1
 62
1
 40
0.000000
 41
0.000000
 66
  1
  0
VERTEX
  8
gg1
 10
0.273800
 20
0.418700
  0
VERTEX
  8
gg1
 10
0.288800
 20
0.418700
  0
SEQEND
  8
gg1
  0
POLYLINE
  8
gg1
 62
1
 40
0.000000
 41
0.000000
 66
  1
  0
VERTEX
  8
gg1
 10
0.281300
 20
0.411200
  0
VERTEX
  8
gg1
 10
0.281300
 20
0.426200
  0
SEQEND
  8
gg1
  0
POLYLINE
  8
gg1
 62
1
 40
0.000000
 41
0.000000
 66
  1
  0
VERTEX
  8
gg1
 10
0.287500
 20
0.620000
  0
VERTEX
  8
gg1
 10
0.302500
 20
0.620000
  0
SEQEND
  8
gg1
  0
POLYLINE
  8
gg1
 62
1
 40
0.000000
 41
0.000000
 66
  1
  0
VERTEX
  8
gg1
 10
0.295000
 20
0.612500
  0
VERTEX
  8
gg1
 10
0.295000
 20
0.627500
  0
SEQEND
  8
gg1
  0
POLYLINE
  8
gg1
 62
1
 40
0.000000
 41
0.000000
 66
  1
  0
VERTEX
  8
gg1
 10
0.292500
 20
0.533500
  0
VERTEX
  8
gg1
 10
0.307500
 20
0.533500
  0
SEQEND
  8
gg1
  0
POLYLINE
  8
gg1
 62
1
 40
0.000000
 41
0.000000
 66
  1
  0
VERTEX
  8
gg1
 10
0.300000
 20
0.526000
  0
VERTEX
  8
gg1
 10
0.300000
 20
0.541000
  0
SEQEND
  8
gg1
  0
POLYLINE
  8
gg1
 62
1
 40
0.000000
 41
0.000000
 66
  1
  0
VERTEX
  8
gg1
 10
0.287500
 20
0.660000
  0
VERTEX
  8
gg1
 10
0.302500
 20
0.660000
  0
SEQEND
  8
gg1
  0
POLYLINE
  8
gg1
 62
1
 40
0.000000
 41
0.000000
 66
  1
  0
VERTEX
  8
gg1
 10
0.295000
 20
0.652500
  0
VERTEX
  8
gg1
 10
0.295000
 20
0.667500
  0
SEQEND
  8
gg1
  0
POLYLINE
  8
gg1
 62
1
 40
0.000000
 41
0.000000
 66
  1
  0
VERTEX
  8
gg1
 10
0.287500
 20
0.740000
  0
VERTEX
  8
gg1
 10
0.302500
 20
0.740000
  0
SEQEND
  8
gg1
  0
POLYLINE
  8
gg1
 62
1
 40
0.000000
 41
0.000000
 66
  1
  0
VERTEX
  8
gg1
 10
0.295000
 20
0.732500
  0
VERTEX
  8
gg1
 10
0.295000
 20
0.747500
  0
SEQEND
  8
gg1
  0
POLYLINE
  8
gg1
 62
1
 40
0.000000
 41
0.000000
 66
  1
  0
VERTEX
  8
gg1
 10
0.287500
 20
0.700000
  0
VERTEX
  8
gg1
 10
0.302500
 20
0.700000
  0
SEQEND
  8
gg1
  0
POLYLINE
  8
gg1
 62
1
 40
0.000000
 41
0.000000
 66
  1
  0
VERTEX
  8
gg1
 10
0.295000
 20
0.692500
  0
VERTEX
  8
gg1
 10
0.295000
 20
0.707500
  0
SEQEND
  8
gg1
  0
POLYLINE
  8
gg1
 62
1
 40
0.000000
 41
0.000000
 66
  1
  0
VERTEX
  8
gg1
 10
0.187500
 20
0.114900
  0
VERTEX
  8
gg1
 10
0.202500
 20
0.114900
  0
SEQEND
  8
gg1
  0
POLYLINE
  8
gg1
 62
1
 40
0.000000
 41
0.000000
 66
  1
  0
VERTEX
  8
gg1
 10
0.195000
 20
0.107400
  0
VERTEX
  8
gg1
 10
0.195000
 20
0.122400
  0
SEQEND
  8
gg1
  0
POLYLINE
  8
gg1
 62
1
 40
0.000000
 41
0.000000
 66
  1
  0
VERTEX
  8
gg1
 10
0.194900
 20
0.696700
  0
VERTEX
  8
gg1
 10
0.209900
 20
0.696700
  0
SEQEND
  8
gg1
  0
POLYLINE
  8
gg1
 62
1
 40
0.000000
 41
0.000000
 66
  1
  0
VERTEX
  8
gg1
 10
0.202400
 20
0.689200
  0
VERTEX
  8
gg1
 10
0.202400
 20
0.704200
  0
SEQEND
  8
gg1
  0
POLYLINE
  8
gg1
 62
1
 40
0.000000
 41
0.000000
 66
  1
  0
VERTEX
  8
gg1
 10
0.150000
 20
0.530000
  0
VERTEX
  8
gg1
 10
0.165000
 20
0.530000
  0
SEQEND
  8
gg1
  0
POLYLINE
  8
gg1
 62
1
 40
0.000000
 41
0.000000
 66
  1
  0
VERTEX
  8
gg1
 10
0.157500
 20
0.522500
  0
VERTEX
  8
gg1
 10
0.157500
 20
0.537500
  0
SEQEND
  8
gg1
  0
POLYLINE
  8
gg1
 62
1
 40
0.000000
 41
0.000000
 66
  1
  0
VERTEX
  8
gg1
 10
0.377500
 20
0.740000
  0
VERTEX
  8
gg1
 10
0.392500
 20
0.740000
  0
SEQEND
  8
gg1
  0
POLYLINE
  8
gg1
 62
1
 40
0.000000
 41
0.000000
 66
  1
  0
VERTEX
  8
gg1
 10
0.385000
 20
0.732500
  0
VERTEX
  8
gg1
 10
0.385000
 20
0.747500
  0
SEQEND
  8
gg1
  0
POLYLINE
  8
gg1
 62
1
 40
0.000000
 41
0.000000
 66
  1
  0
VERTEX
  8
gg1
 10
0.316500
 20
0.270500
  0
VERTEX
  8
gg1
 10
0.331500
 20
0.270500
  0
SEQEND
  8
gg1
  0
POLYLINE
  8
gg1
 62
1
 40
0.000000
 41
0.000000
 66
  1
  0
VERTEX
  8
gg1
 10
0.324000
 20
0.263000
  0
VERTEX
  8
gg1
 10
0.324000
 20
0.278000
  0
SEQEND
  8
gg1
  0
POLYLINE
  8
gg1
 62
1
 40
0.000000
 41
0.000000
 66
  1
  0
VERTEX
  8
gg1
 10
0.292500
 20
0.562500
  0
VERTEX
  8
gg1
 10
0.307500
 20
0.562500
  0
SEQEND
  8
gg1
  0
POLYLINE
  8
gg1
 62
1
 40
0.000000
 41
0.000000
 66
  1
  0
VERTEX
  8
gg1
 10
0.300000
 20
0.555000
  0
VERTEX
  8
gg1
 10
0.300000
 20
0.570000
  0
SEQEND
  8
gg1
  0
POLYLINE
  8
gg1
 62
1
 40
0.000000
 41
0.000000
 66
  1
  0
VERTEX
  8
gg1
 10
0.292500
 20
0.285500
  0
VERTEX
  8
gg1
 10
0.307500
 20
0.285500
  0
SEQEND
  8
gg1
  0
POLYLINE
  8
gg1
 62
1
 40
0.000000
 41
0.000000
 66
  1
  0
VERTEX
  8
gg1
 10
0.300000
 20
0.278000
  0
VERTEX
  8
gg1
 10
0.300000
 20
0.293000
  0
SEQEND
  8
gg1
  0
POLYLINE
  8
gg1
 62
1
 40
0.000000
 41
0.000000
 66
  1
  0
VERTEX
  8
gg1
 10
0.322500
 20
0.095100
  0
VERTEX
  8
gg1
 10
0.337500
 20
0.095100
  0
SEQEND
  8
gg1
  0
POLYLINE
  8
gg1
 62
1
 40
0.000000
 41
0.000000
 66
  1
  0
VERTEX
  8
gg1
 10
0.330000
 20
0.087600
  0
VERTEX
  8
gg1
 10
0.330000
 20
0.102600
  0
SEQEND
  8
gg1
  0
POLYLINE
  8
gg1
 62
1
 40
0.000000
 41
0.000000
 66
  1
  0
VERTEX
  8
gg1
 10
0.402500
 20
0.055100
  0
VERTEX
  8
gg1
 10
0.417500
 20
0.055100
  0
SEQEND
  8
gg1
  0
POLYLINE
  8
gg1
 62
1
 40
0.000000
 41
0.000000
 66
  1
  0
VERTEX
  8
gg1
 10
0.410000
 20
0.047600
  0
VERTEX
  8
gg1
 10
0.410000
 20
0.062600
  0
SEQEND
  8
gg1
  0
POLYLINE
  8
gg1
 62
1
 40
0.000000
 41
0.000000
 66
  1
  0
VERTEX
  8
gg1
 10
0.362500
 20
0.055100
  0
VERTEX
  8
gg1
 10
0.377500
 20
0.055100
  0
SEQEND
  8
gg1
  0
POLYLINE
  8
gg1
 62
1
 40
0.000000
 41
0.000000
 66
  1
  0
VERTEX
  8
gg1
 10
0.370000
 20
0.047600
  0
VERTEX
  8
gg1
 10
0.370000
 20
0.062600
  0
SEQEND
  8
gg1
  0
POLYLINE
  8
gg1
 62
1
 40
0.000000
 41
0.000000
 66
  1
  0
VERTEX
  8
gg1
 10
0.322500
 20
0.055100
  0
VERTEX
  8
gg1
 10
0.337500
 20
0.055100
  0
SEQEND
  8
gg1
  0
POLYLINE
  8
gg1
 62
1
 40
0.000000
 41
0.000000
 66
  1
  0
VERTEX
  8
gg1
 10
0.330000
 20
0.047600
  0
VERTEX
  8
gg1
 10
0.330000
 20
0.062600
  0
SEQEND
  8
gg1
  0
POLYLINE
  8
gg1
 62
1
 40
0.000000
 41
0.000000
 66
  1
  0
VERTEX
  8
gg1
 10
0.322500
 20
0.135100
  0
VERTEX
  8
gg1
 10
0.337500
 20
0.135100
  0
SEQEND
  8
gg1
  0
POLYLINE
  8
gg1
 62
1
 40
0.000000
 41
0.000000
 66
  1
  0
VERTEX
  8
gg1
 10
0.330000
 20
0.127600
  0
VERTEX
  8
gg1
 10
0.330000
 20
0.142600
  0
SEQEND
  8
gg1
  0
POLYLINE
  8
gg1
 62
1
 40
0.000000
 41
0.000000
 66
  1
  0
VERTEX
  8
gg1
 10
0.383500
 20
0.454000
  0
VERTEX
  8
gg1
 10
0.398500
 20
0.454000
  0
SEQEND
  8
gg1
  0
POLYLINE
  8
gg1
 62
1
 40
0.000000
 41
0.000000
 66
  1
  0
VERTEX
  8
gg1
 10
0.391000
 20
0.446500
  0
VERTEX
  8
gg1
 10
0.391000
 20
0.461500
  0
SEQEND
  8
gg1
  0
POLYLINE
  8
gg1
 62
1
 40
0.000000
 41
0.000000
 66
  1
  0
VERTEX
  8
gg1
 10
0.442500
 20
0.415000
  0
VERTEX
  8
gg1
 10
0.457500
 20
0.415000
  0
SEQEND
  8
gg1
  0
POLYLINE
  8
gg1
 62
1
 40
0.000000
 41
0.000000
 66
  1
  0
VERTEX
  8
gg1
 10
0.450000
 20
0.407500
  0
VERTEX
  8
gg1
 10
0.450000
 20
0.422500
  0
SEQEND
  8
gg1
  0
POLYLINE
  8
gg1
 62
1
 40
0.000000
 41
0.000000
 66
  1
  0
VERTEX
  8
gg1
 10
0.187500
 20
0.074900
  0
VERTEX
  8
gg1
 10
0.202500
 20
0.074900
  0
SEQEND
  8
gg1
  0
POLYLINE
  8
gg1
 62
1
 40
0.000000
 41
0.000000
 66
  1
  0
VERTEX
  8
gg1
 10
0.195000
 20
0.067400
  0
VERTEX
  8
gg1
 10
0.195000
 20
0.082400
  0
SEQEND
  8
gg1
  0
POLYLINE
  8
gg1
 62
1
 40
0.000000
 41
0.000000
 66
  1
  0
VERTEX
  8
gg1
 10
0.157500
 20
0.310000
  0
VERTEX
  8
gg1
 10
0.172500
 20
0.310000
  0
SEQEND
  8
gg1
  0
POLYLINE
  8
gg1
 62
1
 40
0.000000
 41
0.000000
 66
  1
  0
VERTEX
  8
gg1
 10
0.165000
 20
0.302500
  0
VERTEX
  8
gg1
 10
0.165000
 20
0.317500
  0
SEQEND
  8
gg1
  0
POLYLINE
  8
gg1
 62
1
 40
0.000000
 41
0.000000
 66
  1
  0
VERTEX
  8
gg1
 10
0.122500
 20
0.330000
  0
VERTEX
  8
gg1
 10
0.137500
 20
0.330000
  0
SEQEND
  8
gg1
  0
POLYLINE
  8
gg1
 62
1
 40
0.000000
 41
0.000000
 66
  1
  0
VERTEX
  8
gg1
 10
0.130000
 20
0.322500
  0
VERTEX
  8
gg1
 10
0.130000
 20
0.337500
  0
SEQEND
  8
gg1
  0
POLYLINE
  8
gg1
 62
1
 40
0.000000
 41
0.000000
 66
  1
  0
VERTEX
  8
gg1
 10
0.187500
 20
0.155000
  0
VERTEX
  8
gg1
 10
0.202500
 20
0.155000
  0
SEQEND
  8
gg1
  0
POLYLINE
  8
gg1
 62
1
 40
0.000000
 41
0.000000
 66
  1
  0
VERTEX
  8
gg1
 10
0.195000
 20
0.147500
  0
VERTEX
  8
gg1
 10
0.195000
 20
0.162500
  0
SEQEND
  8
gg1
  0
POLYLINE
  8
gg1
 62
1
 40
0.000000
 41
0.000000
 66
  1
  0
VERTEX
  8
gg1
 10
0.157500
 20
0.350000
  0
VERTEX
  8
gg1
 10
0.172500
 20
0.350000
  0
SEQEND
  8
gg1
  0
POLYLINE
  8
gg1
 62
1
 40
0.000000
 41
0.000000
 66
  1
  0
VERTEX
  8
gg1
 10
0.165000
 20
0.342500
  0
VERTEX
  8
gg1
 10
0.165000
 20
0.357500
  0
SEQEND
  8
gg1
  0
ENDSEC
  0
EOF
